<?xml version="1.0" encoding="utf-8"?>
<!-- Generator: Adobe Illustrator 16.0.0, SVG Export Plug-In . SVG Version: 6.00 Build 0)  -->
<!DOCTYPE svg PUBLIC "-//W3C//DTD SVG 1.1//EN" "http://www.w3.org/Graphics/SVG/1.1/DTD/svg11.dtd">
<svg version="1.1" id="Layer_1" xmlns="http://www.w3.org/2000/svg" xmlns:xlink="http://www.w3.org/1999/xlink" x="0px" y="0px"
	 width="512px" height="512px" viewBox="0 0 512 512" enable-background="new 0 0 512 512" xml:space="preserve">
<g>
	
		<image overflow="visible" opacity="0.37" width="521" height="420" xlink:href="6F84B66.png"  transform="matrix(1 0 0 1 -2.875 58.9172)">
	</image>
	<g>
		<g>
			<path fill="#FFFFFF" d="M474.641,136.415c-47.864-71.847-144.967-91.258-216.812-43.378
				c-71.865,47.905-91.303,144.99-43.401,216.854c47.892,71.851,144.983,91.277,216.858,43.374
				C503.13,305.378,522.551,208.295,474.641,136.415z"/>
			<path fill="#5EC8D8" d="M238.674,293.702L238.674,293.702c-38.954-58.429-23.14-137.425,35.338-176.397
				c58.44-38.947,137.434-23.157,176.391,35.289c38.943,58.437,23.146,137.458-35.298,176.426
				C356.645,367.968,277.643,352.153,238.674,293.702z"/>
			<polygon fill="#FFFFFF" points="113.605,402.49 90.164,367.297 216.773,282.917 240.215,318.091 			"/>
			<polygon fill="#5996CB" points="118.469,400.69 93.516,363.226 179.284,306.07 204.25,343.512 			"/>
			<path fill="#F04D3D" d="M61.051,455.165c-16.54,11.053-38.909,6.562-49.927-9.981c-11.026-16.514-6.558-38.872,10.017-49.896
				l127.292-84.859c9.45-6.293,20.797-7.53,30.852-4.358l24.961,37.442c-0.929,10.509-6.436,20.508-15.889,26.812L61.051,455.165z"
				/>
			<path fill-rule="evenodd" clip-rule="evenodd" fill="#A9DDE7" d="M418.805,144.05c-18.687,40.565-59.704,68.723-107.292,68.723
				c-26.025,0-50.069-8.42-69.586-22.678c5.249-25.318,20.063-48.671,43.287-64.146C328.448,97.141,385.712,105.71,418.805,144.05z"
				/>
			<path fill="#F15E47" d="M59.664,453.66c-15.534,10.373-36.543,6.149-46.889-9.386c-10.359-15.509-6.159-36.507,9.404-46.871
				l119.561-79.706c15.53-10.337,36.529-6.15,46.881,9.368c10.358,15.547,6.155,36.544-9.374,46.899L59.664,453.66z"/>
		</g>
	</g>
</g>
</svg>
